<?xml version="1.0" encoding="utf-8"?>
<svg version="1.1" xmlns:xlink="http://www.w3.org/1999/xlink" width="31px" height="33px" xmlns="http://www.w3.org/2000/svg">
  <g transform="matrix(1 0 0 1 -1147 -803 )">
    <path d="M 23.4921875 29.841796875  C 23.7281650641026 29.5696614583333  23.8461538461538 29.2473958333333  23.8461538461538 28.875  C 23.8461538461538 28.5026041666667  23.7281650641026 28.1803385416667  23.4921875 27.908203125  C 23.2562099358974 27.6360677083333  22.9767628205128 27.5  22.6538461538462 27.5  C 22.3309294871795 27.5  22.0514823717949 27.6360677083333  21.8155048076923 27.908203125  C 21.5795272435897 28.1803385416667  21.4615384615385 28.5026041666667  21.4615384615385 28.875  C 21.4615384615385 29.2473958333333  21.5795272435897 29.5696614583333  21.8155048076923 29.841796875  C 22.0514823717949 30.1139322916667  22.3309294871795 30.25  22.6538461538462 30.25  C 22.9767628205128 30.25  23.2562099358974 30.1139322916667  23.4921875 29.841796875  Z M 28.2614182692308 29.841796875  C 28.4973958333333 29.5696614583333  28.6153846153846 29.2473958333333  28.6153846153846 28.875  C 28.6153846153846 28.5026041666667  28.4973958333333 28.1803385416667  28.2614182692308 27.908203125  C 28.0254407051282 27.6360677083333  27.7459935897436 27.5  27.4230769230769 27.5  C 27.1001602564103 27.5  26.8207131410256 27.6360677083333  26.5847355769231 27.908203125  C 26.3487580128205 28.1803385416667  26.2307692307692 28.5026041666667  26.2307692307692 28.875  C 26.2307692307692 29.2473958333333  26.3487580128205 29.5696614583333  26.5847355769231 29.841796875  C 26.8207131410256 30.1139322916667  27.1001602564103 30.25  27.4230769230769 30.25  C 27.7459935897436 30.25  28.0254407051282 30.1139322916667  28.2614182692308 29.841796875  Z M 30.4783653846154 22.6015625  C 30.8261217948718 23.0026041666667  31 23.4895833333333  31 24.0625  L 31 30.9375  C 31 31.5104166666667  30.8261217948718 31.9973958333333  30.4783653846154 32.3984375  C 30.130608974359 32.7994791666667  29.7083333333333 33  29.2115384615385 33  L 1.78846153846154 33  C 1.29166666666667 33  0.869391025641026 32.7994791666667  0.521634615384615 32.3984375  C 0.173878205128205 31.9973958333333  0 31.5104166666667  0 30.9375  L 0 24.0625  C 0 23.4895833333333  0.173878205128205 23.0026041666667  0.521634615384615 22.6015625  C 0.869391025641026 22.2005208333333  1.29166666666667 22  1.78846153846154 22  L 10.4513221153846 22  L 12.9663461538462 24.921875  C 13.6866987179487 25.7239583333333  14.53125 26.125  15.5 26.125  C 16.46875 26.125  17.3133012820513 25.7239583333333  18.0336538461538 24.921875  L 20.5673076923077 22  L 29.2115384615385 22  C 29.7083333333333 22  30.130608974359 22.2005208333333  30.4783653846154 22.6015625  Z M 23.8461538461538 11  C 24.3677884615385 11  24.7341746794872 11.279296875  24.9453125 11.837890625  C 25.1564503205128 12.4251302083333  25.0695112179487 12.9264322916667  24.6844951923077 13.341796875  L 16.3383413461538 22.966796875  C 16.1147836538462 23.2389322916667  15.8353365384615 23.375  15.5 23.375  C 15.1646634615385 23.375  14.8852163461538 23.2389322916667  14.6616586538462 22.966796875  L 6.31550480769231 13.341796875  C 5.93048878205128 12.9264322916667  5.84354967948718 12.4251302083333  6.0546875 11.837890625  C 6.26582532051282 11.279296875  6.63221153846154 11  7.15384615384615 11  L 11.9230769230769 11  L 11.9230769230769 1.375  C 11.9230769230769 1.00260416666666  12.0410657051282 0.680338541666662  12.2770432692308 0.408203124999999  C 12.5130208333333 0.136067708333335  12.7924679487179 0  13.1153846153846 0  L 17.8846153846154 0  C 18.2075320512821 0  18.4869791666667 0.136067708333335  18.7229567307692 0.408203124999999  C 18.9589342948718 0.680338541666662  19.0769230769231 1.00260416666666  19.0769230769231 1.375  L 19.0769230769231 11  L 23.8461538461538 11  Z " fill-rule="nonzero" fill="#000000" stroke="none" transform="matrix(1 0 0 1 1147 803 )" />
  </g>
</svg>